<mxfile host="Electron" modified="2024-02-15T15:53:34.156Z" agent="Mozilla/5.0 (Windows NT 10.0; Win64; x64) AppleWebKit/537.36 (KHTML, like Gecko) draw.io/23.0.2 Chrome/120.0.6099.109 Electron/28.1.0 Safari/537.36" etag="YwpgPRIRxsLsUvdMnpMz" version="23.0.2" type="device">
  <diagram name="Página-1" id="ftnKr3ozkrLe8y3kq07p">
    <mxGraphModel dx="1922" dy="2441" grid="1" gridSize="10" guides="1" tooltips="1" connect="1" arrows="1" fold="1" page="1" pageScale="1" pageWidth="827" pageHeight="1169" math="0" shadow="0">
      <root>
        <mxCell id="0" />
        <mxCell id="1" parent="0" />
        <mxCell id="Zme5tTfboLcCupoRVvaN-1" value="" style="rounded=0;whiteSpace=wrap;html=1;fillColor=#F0F0F0;" vertex="1" parent="1">
          <mxGeometry x="-320" y="-170" width="1120" height="550" as="geometry" />
        </mxCell>
        <mxCell id="Zme5tTfboLcCupoRVvaN-2" value="" style="rounded=0;whiteSpace=wrap;html=1;fillColor=#D9D9D9;" vertex="1" parent="1">
          <mxGeometry x="-320" y="380" width="1120" height="290" as="geometry" />
        </mxCell>
        <mxCell id="Zme5tTfboLcCupoRVvaN-3" value="" style="rounded=0;whiteSpace=wrap;html=1;fillColor=#CCCCCC;" vertex="1" parent="1">
          <mxGeometry x="-320" y="670" width="1120" height="250" as="geometry" />
        </mxCell>
        <mxCell id="Zme5tTfboLcCupoRVvaN-4" value="" style="rounded=0;whiteSpace=wrap;html=1;fillColor=#B8B8B8;" vertex="1" parent="1">
          <mxGeometry x="-320" y="920" width="1120" height="240" as="geometry" />
        </mxCell>
        <mxCell id="Zme5tTfboLcCupoRVvaN-5" value="" style="edgeStyle=orthogonalEdgeStyle;rounded=0;orthogonalLoop=1;jettySize=auto;html=1;" edge="1" parent="1" source="Zme5tTfboLcCupoRVvaN-6" target="Zme5tTfboLcCupoRVvaN-8">
          <mxGeometry relative="1" as="geometry" />
        </mxCell>
        <mxCell id="Zme5tTfboLcCupoRVvaN-6" value="" style="strokeWidth=2;html=1;shape=mxgraph.flowchart.start_2;whiteSpace=wrap;fillColor=#f8cecc;strokeColor=#b85450;" vertex="1" parent="1">
          <mxGeometry x="351" y="-160" width="50" height="50" as="geometry" />
        </mxCell>
        <mxCell id="Zme5tTfboLcCupoRVvaN-89" value="" style="edgeStyle=orthogonalEdgeStyle;rounded=0;orthogonalLoop=1;jettySize=auto;html=1;" edge="1" parent="1" source="Zme5tTfboLcCupoRVvaN-8" target="Zme5tTfboLcCupoRVvaN-88">
          <mxGeometry relative="1" as="geometry" />
        </mxCell>
        <mxCell id="Zme5tTfboLcCupoRVvaN-8" value="Primer contacto con cliente" style="rounded=1;whiteSpace=wrap;html=1;fillColor=#d5e8d4;strokeColor=#82b366;" vertex="1" parent="1">
          <mxGeometry x="273" y="-63.5" width="206" height="37" as="geometry" />
        </mxCell>
        <mxCell id="Zme5tTfboLcCupoRVvaN-9" value="Recepción consulta" style="text;html=1;strokeColor=none;fillColor=none;align=center;verticalAlign=middle;whiteSpace=wrap;rounded=0;" vertex="1" parent="1">
          <mxGeometry x="-285" y="-150" width="90" height="40" as="geometry" />
        </mxCell>
        <mxCell id="Zme5tTfboLcCupoRVvaN-10" value="Asignar caso" style="text;html=1;strokeColor=none;fillColor=none;align=center;verticalAlign=middle;whiteSpace=wrap;rounded=0;" vertex="1" parent="1">
          <mxGeometry x="-285" y="380" width="90" height="40" as="geometry" />
        </mxCell>
        <mxCell id="Zme5tTfboLcCupoRVvaN-11" value="Diagnostico&amp;nbsp; y resolución&amp;nbsp;" style="text;html=1;strokeColor=none;fillColor=none;align=center;verticalAlign=middle;whiteSpace=wrap;rounded=0;" vertex="1" parent="1">
          <mxGeometry x="-300" y="690" width="120" height="40" as="geometry" />
        </mxCell>
        <mxCell id="Zme5tTfboLcCupoRVvaN-12" value="Seguimiento y resolución" style="text;html=1;strokeColor=none;fillColor=none;align=center;verticalAlign=middle;whiteSpace=wrap;rounded=0;" vertex="1" parent="1">
          <mxGeometry x="-300" y="930" width="105" height="40" as="geometry" />
        </mxCell>
        <mxCell id="Zme5tTfboLcCupoRVvaN-69" value="" style="edgeStyle=orthogonalEdgeStyle;rounded=0;orthogonalLoop=1;jettySize=auto;html=1;" edge="1" parent="1" source="Zme5tTfboLcCupoRVvaN-14" target="Zme5tTfboLcCupoRVvaN-21">
          <mxGeometry relative="1" as="geometry" />
        </mxCell>
        <mxCell id="Zme5tTfboLcCupoRVvaN-76" value="" style="edgeStyle=orthogonalEdgeStyle;rounded=0;orthogonalLoop=1;jettySize=auto;html=1;" edge="1" parent="1" source="Zme5tTfboLcCupoRVvaN-14" target="Zme5tTfboLcCupoRVvaN-75">
          <mxGeometry relative="1" as="geometry" />
        </mxCell>
        <mxCell id="Zme5tTfboLcCupoRVvaN-14" value="Registrar caso" style="rounded=1;whiteSpace=wrap;html=1;fillColor=#d5e8d4;strokeColor=#82b366;" vertex="1" parent="1">
          <mxGeometry x="50" y="150" width="210" height="40" as="geometry" />
        </mxCell>
        <mxCell id="Zme5tTfboLcCupoRVvaN-20" value="" style="edgeStyle=orthogonalEdgeStyle;rounded=0;orthogonalLoop=1;jettySize=auto;html=1;entryX=0.5;entryY=0;entryDx=0;entryDy=0;exitX=0.5;exitY=1;exitDx=0;exitDy=0;" edge="1" parent="1" source="Zme5tTfboLcCupoRVvaN-21" target="Zme5tTfboLcCupoRVvaN-78">
          <mxGeometry relative="1" as="geometry">
            <mxPoint x="234.00255813953476" y="241.5333333333333" as="sourcePoint" />
            <mxPoint x="413.2566666666666" y="274" as="targetPoint" />
          </mxGeometry>
        </mxCell>
        <mxCell id="Zme5tTfboLcCupoRVvaN-21" value="El cliente envía su consulta" style="shape=parallelogram;html=1;strokeWidth=2;perimeter=parallelogramPerimeter;whiteSpace=wrap;rounded=1;arcSize=12;size=0.23;fillColor=#FFFF99;" vertex="1" parent="1">
          <mxGeometry x="50" y="220" width="210" height="43" as="geometry" />
        </mxCell>
        <mxCell id="Zme5tTfboLcCupoRVvaN-26" value="" style="edgeStyle=orthogonalEdgeStyle;rounded=0;orthogonalLoop=1;jettySize=auto;html=1;" edge="1" parent="1" source="Zme5tTfboLcCupoRVvaN-27" target="Zme5tTfboLcCupoRVvaN-32">
          <mxGeometry relative="1" as="geometry" />
        </mxCell>
        <mxCell id="Zme5tTfboLcCupoRVvaN-82" style="edgeStyle=orthogonalEdgeStyle;rounded=0;orthogonalLoop=1;jettySize=auto;html=1;" edge="1" parent="1" source="Zme5tTfboLcCupoRVvaN-27" target="Zme5tTfboLcCupoRVvaN-75">
          <mxGeometry relative="1" as="geometry" />
        </mxCell>
        <mxCell id="Zme5tTfboLcCupoRVvaN-27" value="Asignción automática&amp;nbsp; del caso" style="rounded=1;whiteSpace=wrap;html=1;fillColor=#d5e8d4;strokeColor=#82b366;" vertex="1" parent="1">
          <mxGeometry x="317" y="398" width="194" height="60" as="geometry" />
        </mxCell>
        <mxCell id="Zme5tTfboLcCupoRVvaN-28" value="" style="edgeStyle=orthogonalEdgeStyle;rounded=0;orthogonalLoop=1;jettySize=auto;html=1;" edge="1" parent="1" source="Zme5tTfboLcCupoRVvaN-32" target="Zme5tTfboLcCupoRVvaN-34">
          <mxGeometry relative="1" as="geometry" />
        </mxCell>
        <mxCell id="Zme5tTfboLcCupoRVvaN-29" value="No" style="edgeLabel;html=1;align=center;verticalAlign=middle;resizable=0;points=[];" vertex="1" connectable="0" parent="Zme5tTfboLcCupoRVvaN-28">
          <mxGeometry x="0.0556" y="1" relative="1" as="geometry">
            <mxPoint as="offset" />
          </mxGeometry>
        </mxCell>
        <mxCell id="Zme5tTfboLcCupoRVvaN-30" value="" style="edgeStyle=orthogonalEdgeStyle;rounded=0;orthogonalLoop=1;jettySize=auto;html=1;entryX=0.5;entryY=0;entryDx=0;entryDy=0;" edge="1" parent="1" source="Zme5tTfboLcCupoRVvaN-32" target="Zme5tTfboLcCupoRVvaN-123">
          <mxGeometry relative="1" as="geometry">
            <mxPoint x="413.73684210526335" y="684" as="targetPoint" />
          </mxGeometry>
        </mxCell>
        <mxCell id="Zme5tTfboLcCupoRVvaN-31" value="Sí" style="edgeLabel;html=1;align=center;verticalAlign=middle;resizable=0;points=[];" vertex="1" connectable="0" parent="Zme5tTfboLcCupoRVvaN-30">
          <mxGeometry x="-0.2242" y="2" relative="1" as="geometry">
            <mxPoint as="offset" />
          </mxGeometry>
        </mxCell>
        <mxCell id="Zme5tTfboLcCupoRVvaN-32" value="¿Consultor disponible y especializado?" style="rhombus;whiteSpace=wrap;html=1;rounded=1;arcSize=0;fillColor=#ffe6cc;strokeColor=#d79b00;" vertex="1" parent="1">
          <mxGeometry x="361" y="513" width="106" height="110" as="geometry" />
        </mxCell>
        <mxCell id="Zme5tTfboLcCupoRVvaN-33" style="edgeStyle=orthogonalEdgeStyle;rounded=0;orthogonalLoop=1;jettySize=auto;html=1;entryX=0.5;entryY=0;entryDx=0;entryDy=0;" edge="1" parent="1" source="Zme5tTfboLcCupoRVvaN-34" target="Zme5tTfboLcCupoRVvaN-32">
          <mxGeometry relative="1" as="geometry">
            <Array as="points">
              <mxPoint x="180" y="480" />
              <mxPoint x="414" y="480" />
            </Array>
          </mxGeometry>
        </mxCell>
        <mxCell id="Zme5tTfboLcCupoRVvaN-34" value="Esperar disponibilidad" style="whiteSpace=wrap;html=1;rounded=1;arcSize=14;fillColor=#d5e8d4;strokeColor=#82b366;" vertex="1" parent="1">
          <mxGeometry x="92" y="538" width="180" height="60" as="geometry" />
        </mxCell>
        <mxCell id="Zme5tTfboLcCupoRVvaN-35" value="" style="edgeStyle=orthogonalEdgeStyle;rounded=0;orthogonalLoop=1;jettySize=auto;html=1;" edge="1" parent="1" source="Zme5tTfboLcCupoRVvaN-59" target="Zme5tTfboLcCupoRVvaN-45">
          <mxGeometry relative="1" as="geometry" />
        </mxCell>
        <mxCell id="Zme5tTfboLcCupoRVvaN-39" value="" style="edgeStyle=orthogonalEdgeStyle;rounded=0;orthogonalLoop=1;jettySize=auto;html=1;entryX=0.5;entryY=0;entryDx=0;entryDy=0;" edge="1" parent="1" source="Zme5tTfboLcCupoRVvaN-40" target="Zme5tTfboLcCupoRVvaN-47">
          <mxGeometry relative="1" as="geometry" />
        </mxCell>
        <mxCell id="Zme5tTfboLcCupoRVvaN-122" value="" style="edgeStyle=orthogonalEdgeStyle;rounded=0;orthogonalLoop=1;jettySize=auto;html=1;" edge="1" parent="1" source="Zme5tTfboLcCupoRVvaN-40" target="Zme5tTfboLcCupoRVvaN-121">
          <mxGeometry relative="1" as="geometry" />
        </mxCell>
        <mxCell id="Zme5tTfboLcCupoRVvaN-40" value="Implementar solución" style="rounded=1;whiteSpace=wrap;html=1;fillColor=#d5e8d4;strokeColor=#82b366;" vertex="1" parent="1">
          <mxGeometry x="560" y="840" width="197" height="40" as="geometry" />
        </mxCell>
        <mxCell id="Zme5tTfboLcCupoRVvaN-43" value="" style="edgeStyle=orthogonalEdgeStyle;rounded=0;orthogonalLoop=1;jettySize=auto;html=1;" edge="1" parent="1" source="Zme5tTfboLcCupoRVvaN-45" target="Zme5tTfboLcCupoRVvaN-40">
          <mxGeometry relative="1" as="geometry" />
        </mxCell>
        <mxCell id="Zme5tTfboLcCupoRVvaN-44" value="Sí" style="edgeLabel;html=1;align=center;verticalAlign=middle;resizable=0;points=[];" vertex="1" connectable="0" parent="Zme5tTfboLcCupoRVvaN-43">
          <mxGeometry x="-0.381" y="1" relative="1" as="geometry">
            <mxPoint as="offset" />
          </mxGeometry>
        </mxCell>
        <mxCell id="Zme5tTfboLcCupoRVvaN-113" value="" style="edgeStyle=orthogonalEdgeStyle;rounded=0;orthogonalLoop=1;jettySize=auto;html=1;" edge="1" parent="1" source="Zme5tTfboLcCupoRVvaN-45" target="Zme5tTfboLcCupoRVvaN-112">
          <mxGeometry relative="1" as="geometry" />
        </mxCell>
        <mxCell id="Zme5tTfboLcCupoRVvaN-115" value="No" style="edgeLabel;html=1;align=center;verticalAlign=middle;resizable=0;points=[];" vertex="1" connectable="0" parent="Zme5tTfboLcCupoRVvaN-113">
          <mxGeometry x="-0.351" y="2" relative="1" as="geometry">
            <mxPoint as="offset" />
          </mxGeometry>
        </mxCell>
        <mxCell id="Zme5tTfboLcCupoRVvaN-45" value="¿Problema solucionado?" style="rhombus;whiteSpace=wrap;html=1;rounded=1;arcSize=7;fillColor=#ffe6cc;strokeColor=#d79b00;" vertex="1" parent="1">
          <mxGeometry x="374" y="820" width="80" height="80" as="geometry" />
        </mxCell>
        <mxCell id="Zme5tTfboLcCupoRVvaN-46" value="" style="edgeStyle=orthogonalEdgeStyle;rounded=0;orthogonalLoop=1;jettySize=auto;html=1;" edge="1" parent="1" source="Zme5tTfboLcCupoRVvaN-47" target="Zme5tTfboLcCupoRVvaN-53">
          <mxGeometry relative="1" as="geometry" />
        </mxCell>
        <mxCell id="Zme5tTfboLcCupoRVvaN-47" value="Realizar seguimiento" style="rounded=1;whiteSpace=wrap;html=1;fillColor=#d5e8d4;strokeColor=#82b366;" vertex="1" parent="1">
          <mxGeometry x="560" y="960" width="197" height="40" as="geometry" />
        </mxCell>
        <mxCell id="Zme5tTfboLcCupoRVvaN-48" value="Start" style="text;html=1;strokeColor=none;fillColor=none;align=center;verticalAlign=middle;whiteSpace=wrap;rounded=0;" vertex="1" parent="1">
          <mxGeometry x="252" y="-150" width="90" height="40" as="geometry" />
        </mxCell>
        <mxCell id="Zme5tTfboLcCupoRVvaN-51" value="" style="edgeStyle=orthogonalEdgeStyle;rounded=0;orthogonalLoop=1;jettySize=auto;html=1;entryX=0.5;entryY=0;entryDx=0;entryDy=0;exitX=0.5;exitY=1;exitDx=0;exitDy=0;" edge="1" parent="1" source="Zme5tTfboLcCupoRVvaN-53" target="Zme5tTfboLcCupoRVvaN-62">
          <mxGeometry relative="1" as="geometry">
            <mxPoint x="451.5" y="1068" as="targetPoint" />
          </mxGeometry>
        </mxCell>
        <mxCell id="Zme5tTfboLcCupoRVvaN-52" value="Sí" style="edgeLabel;html=1;align=center;verticalAlign=middle;resizable=0;points=[];" vertex="1" connectable="0" parent="Zme5tTfboLcCupoRVvaN-51">
          <mxGeometry x="-0.3675" y="1" relative="1" as="geometry">
            <mxPoint y="3" as="offset" />
          </mxGeometry>
        </mxCell>
        <mxCell id="Zme5tTfboLcCupoRVvaN-117" value="" style="edgeStyle=orthogonalEdgeStyle;rounded=0;orthogonalLoop=1;jettySize=auto;html=1;" edge="1" parent="1" source="Zme5tTfboLcCupoRVvaN-53" target="Zme5tTfboLcCupoRVvaN-116">
          <mxGeometry relative="1" as="geometry" />
        </mxCell>
        <mxCell id="Zme5tTfboLcCupoRVvaN-118" value="No" style="edgeLabel;html=1;align=center;verticalAlign=middle;resizable=0;points=[];" vertex="1" connectable="0" parent="Zme5tTfboLcCupoRVvaN-117">
          <mxGeometry x="-0.1345" relative="1" as="geometry">
            <mxPoint y="-1" as="offset" />
          </mxGeometry>
        </mxCell>
        <mxCell id="Zme5tTfboLcCupoRVvaN-53" value="¿Cliente satisfecho?" style="rhombus;whiteSpace=wrap;html=1;rounded=1;arcSize=0;fillColor=#ffe6cc;strokeColor=#d79b00;" vertex="1" parent="1">
          <mxGeometry x="386" y="937.5" width="131" height="85" as="geometry" />
        </mxCell>
        <mxCell id="Zme5tTfboLcCupoRVvaN-54" value="" style="edgeStyle=orthogonalEdgeStyle;rounded=0;orthogonalLoop=1;jettySize=auto;html=1;" edge="1" parent="1" source="Zme5tTfboLcCupoRVvaN-62" target="Zme5tTfboLcCupoRVvaN-60">
          <mxGeometry relative="1" as="geometry">
            <mxPoint x="362.25" y="1088" as="sourcePoint" />
          </mxGeometry>
        </mxCell>
        <mxCell id="Zme5tTfboLcCupoRVvaN-57" value="Fin" style="strokeWidth=2;html=1;shape=mxgraph.flowchart.terminator;whiteSpace=wrap;fillColor=#f8cecc;strokeColor=#b85450;" vertex="1" parent="1">
          <mxGeometry x="620" y="1059" width="100" height="60" as="geometry" />
        </mxCell>
        <mxCell id="Zme5tTfboLcCupoRVvaN-58" value="" style="edgeStyle=orthogonalEdgeStyle;rounded=0;orthogonalLoop=1;jettySize=auto;html=1;exitX=0.5;exitY=1;exitDx=0;exitDy=0;" edge="1" parent="1" source="Zme5tTfboLcCupoRVvaN-123" target="Zme5tTfboLcCupoRVvaN-59">
          <mxGeometry relative="1" as="geometry">
            <mxPoint x="413.73684210526335" y="724" as="sourcePoint" />
            <mxPoint x="415" y="770" as="targetPoint" />
          </mxGeometry>
        </mxCell>
        <mxCell id="Zme5tTfboLcCupoRVvaN-59" value="Cliente da +info al consultor" style="shape=parallelogram;html=1;strokeWidth=2;perimeter=parallelogramPerimeter;whiteSpace=wrap;rounded=1;arcSize=12;size=0.23;fillColor=#FFFF99;" vertex="1" parent="1">
          <mxGeometry x="304" y="750" width="220" height="43" as="geometry" />
        </mxCell>
        <mxCell id="Zme5tTfboLcCupoRVvaN-87" value="" style="edgeStyle=orthogonalEdgeStyle;rounded=0;orthogonalLoop=1;jettySize=auto;html=1;" edge="1" parent="1" source="Zme5tTfboLcCupoRVvaN-60" target="Zme5tTfboLcCupoRVvaN-86">
          <mxGeometry relative="1" as="geometry" />
        </mxCell>
        <mxCell id="Zme5tTfboLcCupoRVvaN-60" value="Almacenar Feedback" style="shape=internalStorage;whiteSpace=wrap;html=1;dx=15;dy=15;rounded=1;arcSize=8;strokeWidth=2;fillColor=#dae8fc;strokeColor=#6c8ebf;" vertex="1" parent="1">
          <mxGeometry x="159" y="1048" width="102" height="80" as="geometry" />
        </mxCell>
        <mxCell id="Zme5tTfboLcCupoRVvaN-61" style="edgeStyle=orthogonalEdgeStyle;rounded=0;orthogonalLoop=1;jettySize=auto;html=1;exitX=1;exitY=0.5;exitDx=0;exitDy=0;" edge="1" parent="1" source="Zme5tTfboLcCupoRVvaN-62" target="Zme5tTfboLcCupoRVvaN-57">
          <mxGeometry relative="1" as="geometry" />
        </mxCell>
        <mxCell id="Zme5tTfboLcCupoRVvaN-62" value="Cerrar caso" style="whiteSpace=wrap;html=1;rounded=1;arcSize=29;fillColor=#d5e8d4;strokeColor=#82b366;" vertex="1" parent="1">
          <mxGeometry x="361" y="1069" width="178.5" height="40" as="geometry" />
        </mxCell>
        <mxCell id="Zme5tTfboLcCupoRVvaN-67" value="" style="edgeStyle=orthogonalEdgeStyle;rounded=0;orthogonalLoop=1;jettySize=auto;html=1;entryX=1;entryY=0.5;entryDx=0;entryDy=0;" edge="1" parent="1" source="Zme5tTfboLcCupoRVvaN-63" target="Zme5tTfboLcCupoRVvaN-14">
          <mxGeometry relative="1" as="geometry" />
        </mxCell>
        <mxCell id="Zme5tTfboLcCupoRVvaN-68" value="No" style="edgeLabel;html=1;align=center;verticalAlign=middle;resizable=0;points=[];" vertex="1" connectable="0" parent="Zme5tTfboLcCupoRVvaN-67">
          <mxGeometry x="-0.3051" relative="1" as="geometry">
            <mxPoint y="1" as="offset" />
          </mxGeometry>
        </mxCell>
        <mxCell id="Zme5tTfboLcCupoRVvaN-71" value="" style="edgeStyle=orthogonalEdgeStyle;rounded=0;orthogonalLoop=1;jettySize=auto;html=1;" edge="1" parent="1" source="Zme5tTfboLcCupoRVvaN-63" target="Zme5tTfboLcCupoRVvaN-70">
          <mxGeometry relative="1" as="geometry" />
        </mxCell>
        <mxCell id="Zme5tTfboLcCupoRVvaN-72" value="Sí" style="edgeLabel;html=1;align=center;verticalAlign=middle;resizable=0;points=[];" vertex="1" connectable="0" parent="Zme5tTfboLcCupoRVvaN-71">
          <mxGeometry x="-0.5397" y="-2" relative="1" as="geometry">
            <mxPoint as="offset" />
          </mxGeometry>
        </mxCell>
        <mxCell id="Zme5tTfboLcCupoRVvaN-63" value="¿Consulta registrada en el SI?" style="rhombus;whiteSpace=wrap;html=1;fillColor=#ffe6cc;strokeColor=#d79b00;rounded=1;arcSize=0;" vertex="1" parent="1">
          <mxGeometry x="316.5" y="102" width="119" height="75" as="geometry" />
        </mxCell>
        <mxCell id="Zme5tTfboLcCupoRVvaN-80" style="edgeStyle=orthogonalEdgeStyle;rounded=0;orthogonalLoop=1;jettySize=auto;html=1;entryX=0.5;entryY=0;entryDx=0;entryDy=0;" edge="1" parent="1" source="Zme5tTfboLcCupoRVvaN-70" target="Zme5tTfboLcCupoRVvaN-27">
          <mxGeometry relative="1" as="geometry">
            <Array as="points">
              <mxPoint x="593" y="330" />
              <mxPoint x="414" y="330" />
            </Array>
          </mxGeometry>
        </mxCell>
        <mxCell id="Zme5tTfboLcCupoRVvaN-85" style="edgeStyle=orthogonalEdgeStyle;rounded=0;orthogonalLoop=1;jettySize=auto;html=1;" edge="1" parent="1" source="Zme5tTfboLcCupoRVvaN-70" target="Zme5tTfboLcCupoRVvaN-83">
          <mxGeometry relative="1" as="geometry" />
        </mxCell>
        <mxCell id="Zme5tTfboLcCupoRVvaN-70" value="Consultar registro&amp;nbsp;" style="rounded=1;whiteSpace=wrap;html=1;fillColor=#d5e8d4;strokeColor=#82b366;" vertex="1" parent="1">
          <mxGeometry x="488" y="150" width="210" height="40" as="geometry" />
        </mxCell>
        <mxCell id="Zme5tTfboLcCupoRVvaN-75" value="Base de conocimiento &lt;br&gt;del SI" style="shape=internalStorage;whiteSpace=wrap;html=1;dx=15;dy=15;rounded=1;arcSize=8;strokeWidth=2;fillColor=#dae8fc;strokeColor=#6c8ebf;" vertex="1" parent="1">
          <mxGeometry x="-160" y="120" width="160" height="100" as="geometry" />
        </mxCell>
        <mxCell id="Zme5tTfboLcCupoRVvaN-79" value="" style="edgeStyle=orthogonalEdgeStyle;rounded=0;orthogonalLoop=1;jettySize=auto;html=1;" edge="1" parent="1" source="Zme5tTfboLcCupoRVvaN-78" target="Zme5tTfboLcCupoRVvaN-27">
          <mxGeometry relative="1" as="geometry" />
        </mxCell>
        <mxCell id="Zme5tTfboLcCupoRVvaN-81" style="edgeStyle=orthogonalEdgeStyle;rounded=0;orthogonalLoop=1;jettySize=auto;html=1;" edge="1" parent="1" source="Zme5tTfboLcCupoRVvaN-78" target="Zme5tTfboLcCupoRVvaN-75">
          <mxGeometry relative="1" as="geometry" />
        </mxCell>
        <mxCell id="Zme5tTfboLcCupoRVvaN-78" value="Clasificación" style="rounded=1;whiteSpace=wrap;html=1;fillColor=#d5e8d4;strokeColor=#82b366;" vertex="1" parent="1">
          <mxGeometry x="50" y="310" width="210" height="40" as="geometry" />
        </mxCell>
        <mxCell id="Zme5tTfboLcCupoRVvaN-83" value="Base de conocimiento &lt;br&gt;del SI" style="shape=internalStorage;whiteSpace=wrap;html=1;dx=15;dy=15;rounded=1;arcSize=8;strokeWidth=2;fillColor=#dae8fc;strokeColor=#6c8ebf;" vertex="1" parent="1">
          <mxGeometry x="620" y="230" width="160" height="100" as="geometry" />
        </mxCell>
        <mxCell id="Zme5tTfboLcCupoRVvaN-86" value="Base de conocimiento &lt;br&gt;del SI" style="shape=internalStorage;whiteSpace=wrap;html=1;dx=15;dy=15;rounded=1;arcSize=8;strokeWidth=2;fillColor=#dae8fc;strokeColor=#6c8ebf;" vertex="1" parent="1">
          <mxGeometry x="-50" y="1038" width="160" height="100" as="geometry" />
        </mxCell>
        <mxCell id="Zme5tTfboLcCupoRVvaN-90" value="" style="edgeStyle=orthogonalEdgeStyle;rounded=0;orthogonalLoop=1;jettySize=auto;html=1;" edge="1" parent="1" source="Zme5tTfboLcCupoRVvaN-88" target="Zme5tTfboLcCupoRVvaN-63">
          <mxGeometry relative="1" as="geometry" />
        </mxCell>
        <mxCell id="Zme5tTfboLcCupoRVvaN-88" value="Rellenar registro de consulta y/o adjuntos del cliente" style="rounded=1;whiteSpace=wrap;html=1;fillColor=#d5e8d4;strokeColor=#82b366;" vertex="1" parent="1">
          <mxGeometry x="273" y="20" width="206" height="37" as="geometry" />
        </mxCell>
        <mxCell id="Zme5tTfboLcCupoRVvaN-94" value="Notificación al consultor" style="shape=step;perimeter=stepPerimeter;whiteSpace=wrap;html=1;fixedSize=1;fillColor=#d5e8d4;strokeColor=#82b366;rounded=1;arcSize=7;" vertex="1" parent="1">
          <mxGeometry x="570.5" y="504" width="120" height="80" as="geometry" />
        </mxCell>
        <mxCell id="Zme5tTfboLcCupoRVvaN-96" value="" style="endArrow=classic;html=1;rounded=0;exitX=0.5;exitY=1;exitDx=0;exitDy=0;entryX=0.5;entryY=1;entryDx=0;entryDy=0;" edge="1" parent="1" source="Zme5tTfboLcCupoRVvaN-32" target="Zme5tTfboLcCupoRVvaN-94">
          <mxGeometry relative="1" as="geometry">
            <mxPoint x="510" y="428" as="sourcePoint" />
            <mxPoint x="631" y="590" as="targetPoint" />
            <Array as="points">
              <mxPoint x="631" y="623" />
            </Array>
          </mxGeometry>
        </mxCell>
        <mxCell id="Zme5tTfboLcCupoRVvaN-97" value="" style="shape=message;html=1;outlineConnect=0;" vertex="1" parent="Zme5tTfboLcCupoRVvaN-96">
          <mxGeometry width="20" height="14" relative="1" as="geometry">
            <mxPoint x="-52" y="-7" as="offset" />
          </mxGeometry>
        </mxCell>
        <mxCell id="Zme5tTfboLcCupoRVvaN-100" value="SIA&lt;br&gt;de asignación y notificación" style="shape=note;whiteSpace=wrap;html=1;backgroundOutline=1;darkOpacity=0.05;" vertex="1" parent="1">
          <mxGeometry x="698" y="490" width="88" height="108" as="geometry" />
        </mxCell>
        <mxCell id="Zme5tTfboLcCupoRVvaN-111" style="edgeStyle=orthogonalEdgeStyle;rounded=0;orthogonalLoop=1;jettySize=auto;html=1;entryX=0.5;entryY=1;entryDx=0;entryDy=0;exitX=0.02;exitY=0.015;exitDx=0;exitDy=0;exitPerimeter=0;" edge="1" parent="1" source="Zme5tTfboLcCupoRVvaN-101" target="Zme5tTfboLcCupoRVvaN-34">
          <mxGeometry relative="1" as="geometry">
            <Array as="points">
              <mxPoint x="42" y="620" />
              <mxPoint x="182" y="620" />
            </Array>
          </mxGeometry>
        </mxCell>
        <mxCell id="Zme5tTfboLcCupoRVvaN-106" value="Caso en el que el cliente no responde, registrar en el SIA nuevo estado" style="shape=note;whiteSpace=wrap;html=1;backgroundOutline=1;darkOpacity=0.05;" vertex="1" parent="1">
          <mxGeometry x="-70" y="720" width="100" height="150" as="geometry" />
        </mxCell>
        <mxCell id="Zme5tTfboLcCupoRVvaN-108" value="Estados del caso" style="swimlane;horizontal=0;whiteSpace=wrap;html=1;fillColor=#dae8fc;strokeColor=#6c8ebf;" vertex="1" parent="1">
          <mxGeometry x="-100" y="670" width="900" height="250" as="geometry">
            <mxRectangle x="-30" y="670" width="40" height="160" as="alternateBounds" />
          </mxGeometry>
        </mxCell>
        <mxCell id="Zme5tTfboLcCupoRVvaN-112" value="Revisar y resolver nuevamente" style="whiteSpace=wrap;html=1;fillColor=#ffe6cc;strokeColor=#d79b00;rounded=1;arcSize=7;" vertex="1" parent="Zme5tTfboLcCupoRVvaN-108">
          <mxGeometry x="250" y="160" width="120" height="60" as="geometry" />
        </mxCell>
        <mxCell id="Zme5tTfboLcCupoRVvaN-101" value="Esperar respuesta" style="strokeWidth=2;html=1;shape=mxgraph.flowchart.delay;whiteSpace=wrap;fillColor=#e1d5e7;strokeColor=#9673a6;" vertex="1" parent="Zme5tTfboLcCupoRVvaN-108">
          <mxGeometry x="140" y="71.5" width="100" height="60" as="geometry" />
        </mxCell>
        <mxCell id="Zme5tTfboLcCupoRVvaN-121" value="Implementar diagnostico y resolución con herramientaas del SI" style="shape=process;whiteSpace=wrap;html=1;backgroundOutline=1;fillColor=#d5e8d4;strokeColor=#82b366;rounded=1;" vertex="1" parent="Zme5tTfboLcCupoRVvaN-108">
          <mxGeometry x="694" y="40" width="128.5" height="80" as="geometry" />
        </mxCell>
        <mxCell id="Zme5tTfboLcCupoRVvaN-123" value="Contactar con el cliente para diagnóstico" style="verticalLabelPosition=middle;verticalAlign=middle;html=1;shape=trapezoid;perimeter=trapezoidPerimeter;whiteSpace=wrap;size=0.23;arcSize=10;flipV=1;labelPosition=center;align=center;fillColor=#e1d5e7;strokeColor=#9673a6;" vertex="1" parent="Zme5tTfboLcCupoRVvaN-108">
          <mxGeometry x="417" y="6" width="194" height="60" as="geometry" />
        </mxCell>
        <mxCell id="Zme5tTfboLcCupoRVvaN-103" value="" style="edgeStyle=orthogonalEdgeStyle;rounded=0;orthogonalLoop=1;jettySize=auto;html=1;exitX=0;exitY=0.75;exitDx=0;exitDy=0;" edge="1" parent="Zme5tTfboLcCupoRVvaN-108" source="Zme5tTfboLcCupoRVvaN-123" target="Zme5tTfboLcCupoRVvaN-101">
          <mxGeometry relative="1" as="geometry">
            <mxPoint x="357" y="34.000000000000455" as="sourcePoint" />
          </mxGeometry>
        </mxCell>
        <mxCell id="Zme5tTfboLcCupoRVvaN-110" value="No contesta" style="edgeLabel;html=1;align=center;verticalAlign=middle;resizable=0;points=[];" vertex="1" connectable="0" parent="Zme5tTfboLcCupoRVvaN-103">
          <mxGeometry x="-0.1407" relative="1" as="geometry">
            <mxPoint x="31" as="offset" />
          </mxGeometry>
        </mxCell>
        <mxCell id="Zme5tTfboLcCupoRVvaN-114" value="" style="edgeStyle=orthogonalEdgeStyle;rounded=0;orthogonalLoop=1;jettySize=auto;html=1;entryX=0.5;entryY=0;entryDx=0;entryDy=0;" edge="1" parent="Zme5tTfboLcCupoRVvaN-108" source="Zme5tTfboLcCupoRVvaN-112" target="Zme5tTfboLcCupoRVvaN-123">
          <mxGeometry relative="1" as="geometry">
            <mxPoint x="474" y="6" as="targetPoint" />
            <Array as="points">
              <mxPoint x="310" y="-50" />
              <mxPoint x="514" y="-50" />
            </Array>
          </mxGeometry>
        </mxCell>
        <mxCell id="Zme5tTfboLcCupoRVvaN-119" value="" style="edgeStyle=orthogonalEdgeStyle;rounded=0;orthogonalLoop=1;jettySize=auto;html=1;" edge="1" parent="1" source="Zme5tTfboLcCupoRVvaN-116" target="Zme5tTfboLcCupoRVvaN-60">
          <mxGeometry relative="1" as="geometry" />
        </mxCell>
        <mxCell id="Zme5tTfboLcCupoRVvaN-120" value="" style="edgeStyle=orthogonalEdgeStyle;rounded=0;orthogonalLoop=1;jettySize=auto;html=1;" edge="1" parent="1" source="Zme5tTfboLcCupoRVvaN-116" target="Zme5tTfboLcCupoRVvaN-112">
          <mxGeometry relative="1" as="geometry" />
        </mxCell>
        <mxCell id="Zme5tTfboLcCupoRVvaN-116" value="Identificar razones y soluciónar" style="whiteSpace=wrap;html=1;fillColor=#ffe6cc;strokeColor=#d79b00;rounded=1;arcSize=21;" vertex="1" parent="1">
          <mxGeometry x="150" y="950" width="120" height="60" as="geometry" />
        </mxCell>
      </root>
    </mxGraphModel>
  </diagram>
</mxfile>
